<?xml version="1.0" encoding="utf-8"?>
<svg height="90px" width="90px" viewBox="0 0 960 960" xmlns="http://www.w3.org/2000/svg">
  <path d="M 449.565 867.913 L 449.565 555.109 L 257 747.913 L 213.087 704 L 437.087 480 L 213.087 256 L 257 212.087 L 449.565 404.652 L 449.565 92.087 L 481 92.087 L 696.913 308 L 524.913 480 L 696.913 652 L 481 867.913 L 449.565 867.913 Z M 512.435 404.652 L 609.087 308 L 512.435 213.109 L 512.435 404.652 Z M 512.435 746.652 L 609.087 652 L 512.435 555.109 L 512.435 746.652 Z M 197.398 529.435 C 183.289 529.435 171.352 524.658 161.585 515.104 C 151.818 505.551 146.935 493.859 146.935 480.028 C 146.935 466.198 151.809 454.163 161.557 443.924 C 171.305 433.685 183.233 428.565 197.341 428.565 C 211.45 428.565 223.347 433.675 233.034 443.896 C 242.721 454.116 247.565 466.141 247.565 479.972 C 247.565 493.802 242.731 505.503 233.063 515.076 C 223.394 524.649 211.506 529.435 197.398 529.435 L 197.398 529.435 Z M 762.659 529.435 C 748.55 529.435 736.653 524.658 726.966 515.104 C 717.279 505.551 712.435 493.859 712.435 480.028 C 712.435 466.198 717.269 454.163 726.938 443.924 C 736.606 433.685 748.494 428.565 762.602 428.565 C 776.711 428.565 788.648 433.675 798.415 443.896 C 808.182 454.116 813.065 466.141 813.065 479.972 C 813.065 493.802 808.191 505.503 798.443 515.076 C 788.695 524.649 776.767 529.435 762.659 529.435 L 762.659 529.435 Z" style="fill: rgb(4, 161, 228);"/>
</svg>