<svg xmlns="http://www.w3.org/2000/svg" height="20" viewBox="0 96 960 960" width="20"><path d="M478 577Zm-21 167q8-80 57-141t123-85q-18-48-60.5-78.5T480 409q-70 0-119 49.5T312 577q0 64 41.5 111.5T457 744Zm-289 49V361v153-10 289Zm0 72q-29.7 0-50.85-21.162Q96 822.676 96 792.96V360.717Q96 331 117.15 310T168 289h120l72-96h240l72 96h120q29.7 0 50.85 21.15Q864 331.3 864 361v186q-17-11-34.5-19.5T792 514V361H168v432h290q2 18.934 6 36.967Q468 848 475 865H168Zm519 95-12-56q-14-5-26.5-12T625 876l-55 17-32-55 41-40q-3-14-3-28.5t3-29.5l-41-39 32-56 54 16q11-10 24-17t27-12l13-56h64l13 56q17 7 29 14t22 15l54-15 32 55-40 38q2 17 2 31t-3 28l41 39-32 55-55-16q-11 9-23.5 16T765 903.692L751 960h-64Zm33.212-120Q750 840 771 818.788q21-21.213 21-51Q792 738 770.788 717q-21.213-21-51-21Q690 696 669 717.212q-21 21.213-21 51Q648 798 669.212 819q21.213 21 51 21Z"/></svg>