<?xml version="1.0" encoding="UTF-8" standalone="no"?>
<!DOCTYPE svg PUBLIC "-//W3C//DTD SVG 1.1//EN" "http://www.w3.org/Graphics/SVG/1.1/DTD/svg11.dtd"
[
<!ATTLIST g
  xmlns:vectornator CDATA #FIXED "http://vectornator.io"
  vectornator:layerName CDATA #IMPLIED >
<!ATTLIST g
  xmlns:vectornator CDATA #FIXED "http://vectornator.io"
  vectornator:mask CDATA #IMPLIED >
<!ATTLIST text
  xmlns:vectornator CDATA #FIXED "http://vectornator.io"
  vectornator:width CDATA #IMPLIED >

<!ATTLIST path
  xmlns:vectornator CDATA #FIXED "http://vectornator.io"
  vectornator:blendMode CDATA #IMPLIED >
<!ATTLIST path
  xmlns:vectornator CDATA #FIXED "http://vectornator.io"
  vectornator:shadowColor CDATA #IMPLIED >
<!ATTLIST path
  xmlns:vectornator CDATA #FIXED "http://vectornator.io"
  vectornator:shadowOpacity CDATA #IMPLIED >
<!ATTLIST path
  xmlns:vectornator CDATA #FIXED "http://vectornator.io"
  vectornator:shadowRadius CDATA #IMPLIED >
<!ATTLIST path
  xmlns:vectornator CDATA #FIXED "http://vectornator.io"
  vectornator:shadowOffset CDATA #IMPLIED >
<!ATTLIST path
  xmlns:vectornator CDATA #FIXED "http://vectornator.io"
  vectornator:shadowAngle CDATA #IMPLIED >

<!ATTLIST image
  xmlns:vectornator CDATA #FIXED "http://vectornator.io"
  vectornator:blendMode CDATA #IMPLIED >
<!ATTLIST image
  xmlns:vectornator CDATA #FIXED "http://vectornator.io"
  vectornator:shadowColor CDATA #IMPLIED >
<!ATTLIST image
  xmlns:vectornator CDATA #FIXED "http://vectornator.io"
  vectornator:shadowOpacity CDATA #IMPLIED >
<!ATTLIST image
  xmlns:vectornator CDATA #FIXED "http://vectornator.io"
  vectornator:shadowRadius CDATA #IMPLIED >
<!ATTLIST image
  xmlns:vectornator CDATA #FIXED "http://vectornator.io"
  vectornator:shadowOffset CDATA #IMPLIED >
<!ATTLIST image
  xmlns:vectornator CDATA #FIXED "http://vectornator.io"
  vectornator:shadowAngle CDATA #IMPLIED >

<!ATTLIST g
  xmlns:vectornator CDATA #FIXED "http://vectornator.io"
  vectornator:blendMode CDATA #IMPLIED >
<!ATTLIST g
  xmlns:vectornator CDATA #FIXED "http://vectornator.io"
  vectornator:shadowColor CDATA #IMPLIED >
<!ATTLIST g
  xmlns:vectornator CDATA #FIXED "http://vectornator.io"
  vectornator:shadowOpacity CDATA #IMPLIED >
<!ATTLIST g
  xmlns:vectornator CDATA #FIXED "http://vectornator.io"
  vectornator:shadowRadius CDATA #IMPLIED >
<!ATTLIST g
  xmlns:vectornator CDATA #FIXED "http://vectornator.io"
  vectornator:shadowOffset CDATA #IMPLIED >
<!ATTLIST g
  xmlns:vectornator CDATA #FIXED "http://vectornator.io"
  vectornator:shadowAngle CDATA #IMPLIED >

<!ENTITY % SVG.filter.extra.content  "| feDropShadow" >
<!ELEMENT feDropShadow EMPTY>
<!ATTLIST feDropShadow
  xmlns:svg CDATA #FIXED "http://www.w3.org/Graphics/SVG/1.1/DTD/svg11.dtd"
  dx CDATA #IMPLIED>
<!ATTLIST feDropShadow
  xmlns:svg CDATA #FIXED "http://www.w3.org/Graphics/SVG/1.1/DTD/svg11.dtd"
  dy CDATA #IMPLIED>
<!ATTLIST feDropShadow
  xmlns:svg CDATA #FIXED "http://www.w3.org/Graphics/SVG/1.1/DTD/svg11.dtd"
  stdDeviation CDATA #IMPLIED>
<!ATTLIST feDropShadow
  xmlns:svg CDATA #FIXED "http://www.w3.org/Graphics/SVG/1.1/DTD/svg11.dtd"
  flood-opacity CDATA #IMPLIED>
<!ATTLIST feDropShadow
  xmlns:svg CDATA #FIXED "http://www.w3.org/Graphics/SVG/1.1/DTD/svg11.dtd"
  in CDATA #IMPLIED>
<!ATTLIST feDropShadow
  xmlns:svg CDATA #FIXED "http://www.w3.org/Graphics/SVG/1.1/DTD/svg11.dtd"
  result CDATA #IMPLIED>
<!ATTLIST feDropShadow
  xmlns:svg CDATA #FIXED "http://www.w3.org/Graphics/SVG/1.1/DTD/svg11.dtd"
  flood-color CDATA #IMPLIED>
]
>
<!-- Created with Vectornator (http://vectornator.io/) -->
<svg height="100%" stroke-miterlimit="10" style="fill-rule:nonzero;clip-rule:evenodd;stroke-linecap:round;stroke-linejoin:round;" version="1.1" viewBox="0 0 100 100" width="100%" xml:space="preserve" xmlns="http://www.w3.org/2000/svg" xmlns:vectornator="http://vectornator.io" xmlns:xlink="http://www.w3.org/1999/xlink">
<defs/>
<clipPath id="ArtboardFrame">
<rect height="100" width="100" x="0" y="0"/>
</clipPath>
<g clip-path="url(#ArtboardFrame)" id="Untitled" vectornator:layerName="Untitled">
<path d="M37.2055 2.97978C30.7595 2.99184 25.0172 7.17864 22.976 13.2929L21.4095 18.2536L15.0127 18.2536C6.7254 18.2536 1.99197e-06 24.979-1.42109e-14 33.2664L-1.42109e-14 73.2133C-2.236e-06 81.5006 6.7254 88.226 15.0127 88.226L47.9102 88.226L47.9102 78.0435L15.0127 78.0435C12.2503 78.0435 10.052 75.7147 10.052 72.9522L10.052 33.0053C10.052 30.2428 12.2503 28.0445 15.0127 28.0445L25.0648 28.0445C27.3063 28.1615 29.3102 26.778 30.0255 24.6503L32.7669 16.426C33.4551 14.3887 35.3162 13.0262 37.4666 13.0318L63.0535 13.0318C65.2039 13.0262 67.1956 14.3887 67.8837 16.426L70.4946 24.6503C71.1515 26.603 73.0059 27.9461 75.0637 28.0445L84.9852 28.0445C87.7476 28.0445 90.0765 30.2428 90.0765 33.0053L90.0765 61.9864L99.9979 61.9864L99.9979 33.2664C100.065 29.2435 98.5113 25.2995 95.6899 22.4311C92.8685 19.5627 89.0086 17.992 84.9852 17.9925L78.5884 17.9925L77.0219 13.0318C74.8951 7.01629 69.1728 2.95518 62.7924 2.97978L37.2055 2.97978ZM49.999 28.0445C38.9492 28.0445 30.0255 36.9682 30.0255 48.018C30.0255 59.0678 38.9492 67.9915 49.999 67.9915C61.0487 67.9915 69.9724 59.0678 69.9724 48.018C69.9724 36.9682 61.0487 28.0445 49.999 28.0445ZM49.999 37.966C55.5239 37.966 60.051 42.4931 60.051 48.018C60.051 53.5429 55.5238 57.9395 49.999 57.9395C44.4741 57.9395 40.0775 53.5429 40.0775 48.018C40.0775 42.4931 44.4741 37.966 49.999 37.966Z" fill="#393939" fill-rule="evenodd" opacity="1" stroke="none"/>
<path d="M47.6118 88.2276C50.3847 88.2551 52.6545 85.9962 52.6816 83.1822C52.7087 80.3682 50.4828 78.0648 47.7099 78.0373" fill="#393939" fill-rule="evenodd" opacity="1" stroke="none"/>
<path d="M90.0704 61.7696C90.0578 64.4617 92.2623 66.6538 94.9943 66.6658C97.7263 66.6779 99.9513 64.5052 99.9639 61.8131" fill="#393939" fill-rule="evenodd" opacity="1" stroke="none"/>
<path d="M80.9851 84.3616L92.2342 75.6504C93.2601 74.8541 93.2597 73.5634 92.2334 72.7675C91.2072 71.9716 89.5436 71.9719 88.5178 72.7681L77.2948 81.4997L66.067 72.7719C65.0407 71.976 63.3772 71.9762 62.3514 72.7725C61.3255 73.5687 61.3259 74.8594 62.3522 75.6553L73.6061 84.3629L62.357 93.0741C61.8617 93.4554 61.5832 93.9743 61.5834 94.5157C61.5835 95.057 61.8623 95.5758 62.3578 95.9569C62.8492 96.3412 63.518 96.5573 64.2157 96.5572C64.9134 96.557 65.5822 96.3407 66.0734 95.9563L77.2964 87.2248L88.5242 95.9526C89.0156 96.3369 89.6845 96.5529 90.3822 96.5528C91.0799 96.5527 91.7486 96.3364 92.2398 95.952C92.7351 95.5707 93.0136 95.0518 93.0134 94.5104C93.0133 93.9691 92.7345 93.4503 92.239 93.0692L80.9851 84.3616Z" fill="#c10000" fill-rule="evenodd" opacity="1" stroke="#c10000" stroke-linecap="butt" stroke-linejoin="round" stroke-width="3"/>
</g>
<g id="Ebene-1" vectornator:layerName="Ebene 1"/>
</svg>
