<svg xmlns="http://www.w3.org/2000/svg" height="20" viewBox="0 96 960 960" width="20"><path d="M162.351 856Q145 856 132.5 843.5T120 814q0-17 12.5-29.5t29.851-12.5h163.298Q343 772 355.5 784.5T368 814q0 17-12.5 29.5T325.649 856H162.351Zm-.687-476Q145 380 132.5 367.5T120 338q0-17 12.5-29.5t29.164-12.5h313.672Q492 296 504.5 308.5T517 338q0 17-12.5 29.5T475.336 380H161.664ZM484 936q-17 0-29.5-12.5T442 894.088V734.912Q442 718 454.5 705.5T484 693q17 0 29.5 12.5T526 735v37h272.458Q815 772 827.5 784.5T840 814q0 17-12.5 29.5T798.458 856H526v38q0 17-12.5 29.5T484 936ZM326 698q-17 0-29.5-12.5T284 656v-38H162.248Q145 618 132.5 605.5T120 576q0-17 12.5-29.5t29.748-12.5H284v-37q0-17 12.5-29.5T326 455q17 0 29.5 12.5t12.5 29.412v159.176Q368 673 355.5 685.5T326 698Zm157.712-80Q467 618 454.5 605.5T442 576q0-17 12.5-29.5t29.212-12.5h314.576Q815 534 827.5 546.5T840 576q0 17-12.5 29.5T798.288 618H483.712ZM634 459q-17 0-29.5-12.5T592 417.088V257.912Q592 241 604.5 228.5T634 216q17 0 29.5 12.5T676 258v38h121.752Q815 296 827.5 308.5T840 338q0 17-12.5 29.5T797.752 380H676v37q0 17-12.5 29.5T634 459Z"/></svg>