<?xml version="1.0" encoding="UTF-8" standalone="no"?>
<!DOCTYPE svg PUBLIC "-//W3C//DTD SVG 1.1//EN" "http://www.w3.org/Graphics/SVG/1.1/DTD/svg11.dtd"
[
<!ATTLIST g
  xmlns:vectornator CDATA #FIXED "http://vectornator.io"
  vectornator:layerName CDATA #IMPLIED >
<!ATTLIST g
  xmlns:vectornator CDATA #FIXED "http://vectornator.io"
  vectornator:mask CDATA #IMPLIED >
<!ATTLIST text
  xmlns:vectornator CDATA #FIXED "http://vectornator.io"
  vectornator:width CDATA #IMPLIED >

<!ATTLIST path
  xmlns:vectornator CDATA #FIXED "http://vectornator.io"
  vectornator:blendMode CDATA #IMPLIED >
<!ATTLIST path
  xmlns:vectornator CDATA #FIXED "http://vectornator.io"
  vectornator:shadowColor CDATA #IMPLIED >
<!ATTLIST path
  xmlns:vectornator CDATA #FIXED "http://vectornator.io"
  vectornator:shadowOpacity CDATA #IMPLIED >
<!ATTLIST path
  xmlns:vectornator CDATA #FIXED "http://vectornator.io"
  vectornator:shadowRadius CDATA #IMPLIED >
<!ATTLIST path
  xmlns:vectornator CDATA #FIXED "http://vectornator.io"
  vectornator:shadowOffset CDATA #IMPLIED >
<!ATTLIST path
  xmlns:vectornator CDATA #FIXED "http://vectornator.io"
  vectornator:shadowAngle CDATA #IMPLIED >

<!ATTLIST image
  xmlns:vectornator CDATA #FIXED "http://vectornator.io"
  vectornator:blendMode CDATA #IMPLIED >
<!ATTLIST image
  xmlns:vectornator CDATA #FIXED "http://vectornator.io"
  vectornator:shadowColor CDATA #IMPLIED >
<!ATTLIST image
  xmlns:vectornator CDATA #FIXED "http://vectornator.io"
  vectornator:shadowOpacity CDATA #IMPLIED >
<!ATTLIST image
  xmlns:vectornator CDATA #FIXED "http://vectornator.io"
  vectornator:shadowRadius CDATA #IMPLIED >
<!ATTLIST image
  xmlns:vectornator CDATA #FIXED "http://vectornator.io"
  vectornator:shadowOffset CDATA #IMPLIED >
<!ATTLIST image
  xmlns:vectornator CDATA #FIXED "http://vectornator.io"
  vectornator:shadowAngle CDATA #IMPLIED >

<!ATTLIST g
  xmlns:vectornator CDATA #FIXED "http://vectornator.io"
  vectornator:blendMode CDATA #IMPLIED >
<!ATTLIST g
  xmlns:vectornator CDATA #FIXED "http://vectornator.io"
  vectornator:shadowColor CDATA #IMPLIED >
<!ATTLIST g
  xmlns:vectornator CDATA #FIXED "http://vectornator.io"
  vectornator:shadowOpacity CDATA #IMPLIED >
<!ATTLIST g
  xmlns:vectornator CDATA #FIXED "http://vectornator.io"
  vectornator:shadowRadius CDATA #IMPLIED >
<!ATTLIST g
  xmlns:vectornator CDATA #FIXED "http://vectornator.io"
  vectornator:shadowOffset CDATA #IMPLIED >
<!ATTLIST g
  xmlns:vectornator CDATA #FIXED "http://vectornator.io"
  vectornator:shadowAngle CDATA #IMPLIED >

<!ENTITY % SVG.filter.extra.content  "| feDropShadow" >
<!ELEMENT feDropShadow EMPTY>
<!ATTLIST feDropShadow
  xmlns:svg CDATA #FIXED "http://www.w3.org/Graphics/SVG/1.1/DTD/svg11.dtd"
  dx CDATA #IMPLIED>
<!ATTLIST feDropShadow
  xmlns:svg CDATA #FIXED "http://www.w3.org/Graphics/SVG/1.1/DTD/svg11.dtd"
  dy CDATA #IMPLIED>
<!ATTLIST feDropShadow
  xmlns:svg CDATA #FIXED "http://www.w3.org/Graphics/SVG/1.1/DTD/svg11.dtd"
  stdDeviation CDATA #IMPLIED>
<!ATTLIST feDropShadow
  xmlns:svg CDATA #FIXED "http://www.w3.org/Graphics/SVG/1.1/DTD/svg11.dtd"
  flood-opacity CDATA #IMPLIED>
<!ATTLIST feDropShadow
  xmlns:svg CDATA #FIXED "http://www.w3.org/Graphics/SVG/1.1/DTD/svg11.dtd"
  in CDATA #IMPLIED>
<!ATTLIST feDropShadow
  xmlns:svg CDATA #FIXED "http://www.w3.org/Graphics/SVG/1.1/DTD/svg11.dtd"
  result CDATA #IMPLIED>
<!ATTLIST feDropShadow
  xmlns:svg CDATA #FIXED "http://www.w3.org/Graphics/SVG/1.1/DTD/svg11.dtd"
  flood-color CDATA #IMPLIED>
]
>
<!-- Created with Vectornator (http://vectornator.io/) -->
<svg height="100%" stroke-miterlimit="10" style="fill-rule:nonzero;clip-rule:evenodd;stroke-linecap:round;stroke-linejoin:round;" version="1.1" viewBox="0 0 24 24" width="100%" xml:space="preserve" xmlns="http://www.w3.org/2000/svg" xmlns:vectornator="http://vectornator.io" xmlns:xlink="http://www.w3.org/1999/xlink">
<defs/>
<g id="Untitled" vectornator:layerName="Untitled">
<path d="M19.9 12.66C19.5684 12.2825 19.5684 11.7175 19.9 11.34L21.18 9.9C21.4694 9.57723 21.5178 9.10479 21.3 8.73L19.3 5.27C19.0844 4.89571 18.6529 4.70212 18.23 4.79L16.35 5.17C15.8549 5.27229 15.3614 4.98904 15.2 4.51L14.59 2.68C14.4524 2.27269 14.0699 1.99889 13.64 2L9.64 2C9.19185 1.97661 8.78299 2.25463 8.64 2.68L8.08 4.51C7.91858 4.98904 7.42505 5.27229 6.93 5.17L5 4.79C4.60034 4.73352 4.20592 4.92285 4 5.27L2 8.73C1.77673 9.10057 1.81709 9.57269 2.1 9.9L3.37 11.34C3.70165 11.7175 3.70165 12.2825 3.37 12.66L2.1 14.1C1.81709 14.4273 1.77673 14.8994 2 15.27L4 18.73C4.21557 19.1043 4.6471 19.2979 5.07 19.21L6.95 18.83C7.44505 18.7277 7.93858 19.011 8.1 19.49L8.71 21.32C8.85299 21.7454 9.26185 22.0234 9.71 22L13.71 22C14.1399 22.0011 14.5224 21.7273 14.66 21.32L15.27 19.49C15.4314 19.011 15.9249 18.7277 16.42 18.83L18.3 19.21C18.7229 19.2979 19.1544 19.1043 19.37 18.73L21.37 15.27C21.5878 14.8952 21.5394 14.4228 21.25 14.1L19.9 12.66ZM18.41 14L19.21 14.9L17.93 17.12L16.75 16.88C15.2592 16.5753 13.7764 17.4349 13.3 18.88L12.92 20L10.36 20L10 18.86C9.52362 17.4149 8.04079 16.5553 6.55 16.86L5.37 17.1L4.07 14.89L4.87 13.99C5.88858 12.8512 5.88858 11.1288 4.87 9.99L4.07 9.09L5.35 6.89L6.53 7.13C8.02079 7.43474 9.50362 6.57513 9.98 5.13L10.36 4L12.92 4L13.3 5.14C13.7764 6.58513 15.2592 7.44474 16.75 7.14L17.93 6.9L19.21 9.12L18.41 10.02C17.4033 11.1557 17.4033 12.8643 18.41 14ZM11.64 8C9.43086 8 7.64 9.79086 7.64 12C7.64 14.2091 9.43086 16 11.64 16C13.8491 16 15.64 14.2091 15.64 12C15.64 9.79086 13.8491 8 11.64 8ZM11.64 14C10.5354 14 9.64 13.1046 9.64 12C9.64 10.8954 10.5354 10 11.64 10C12.7446 10 13.64 10.8954 13.64 12C13.64 13.1046 12.7446 14 11.64 14Z" fill="#000000" fill-rule="evenodd" opacity="1" stroke="none"/>
</g>
</svg>
